%TF.GenerationSoftware,KiCad,Pcbnew,10.0.6*%
%TF.CreationDate,2026-10-10T11:00:00+02:00*%
%TF.ProjectId,joystick,6a6f7973-7469-4636-9b2e-6b696361645f,rev?*%
%TF.SameCoordinates,Original*%
%TF.FileFunction,Drillmap*%
%TF.FilePolarity,Positive*%
%FSLAX45Y45*%
G04 Gerber Fmt 4.5, Leading zero omitted, Abs format (unit mm)*
G04 Created by KiCad (PCBNEW 10.0.6) date 2026-10-10 11:00:00*
%MOMM*%
%LPD*%
G01*
G04 APERTURE LIST*
%ADD10C,0.100000*%
%ADD11C,0.200000*%
%ADD12C,0.220000*%
G04 APERTURE END LIST*
D10*
X8970000Y-10754616D02*
X8970000Y-9225384D01*
X8970000Y-10754616D02*
G75*
G02*
X9352567Y-11120000I55000J-325384D01*
G01*
X9354393Y-8880000D02*
G75*
G02*
X8970000Y-9225384I-329393J-20000D01*
G01*
X9354393Y-8880000D02*
X10645607Y-8880000D01*
X10647433Y-11120000D02*
X9352567Y-11120000D01*
X10647433Y-11120000D02*
G75*
G02*
X11030000Y-10754616I327567J40000D01*
G01*
X11030000Y-9225384D02*
G75*
G02*
X10645607Y-8880000I-55000J325384D01*
G01*
X11030000Y-9225384D02*
X11030000Y-10754616D01*
D11*
D12*
X9290000Y-10530000D02*
X9510000Y-10750000D01*
X9510000Y-10530000D02*
X9290000Y-10750000D01*
X10490000Y-9250000D02*
X10710000Y-9470000D01*
X10710000Y-9250000D02*
X10490000Y-9470000D01*
D11*
X9225777Y-11436484D02*
X9225777Y-11236484D01*
X9225777Y-11236484D02*
X9273396Y-11236484D01*
X9273396Y-11236484D02*
X9301967Y-11246008D01*
X9301967Y-11246008D02*
X9321015Y-11265055D01*
X9321015Y-11265055D02*
X9330539Y-11284103D01*
X9330539Y-11284103D02*
X9340063Y-11322198D01*
X9340063Y-11322198D02*
X9340063Y-11350769D01*
X9340063Y-11350769D02*
X9330539Y-11388865D01*
X9330539Y-11388865D02*
X9321015Y-11407912D01*
X9321015Y-11407912D02*
X9301967Y-11426960D01*
X9301967Y-11426960D02*
X9273396Y-11436484D01*
X9273396Y-11436484D02*
X9225777Y-11436484D01*
X9425777Y-11436484D02*
X9425777Y-11303150D01*
X9425777Y-11341246D02*
X9435301Y-11322198D01*
X9435301Y-11322198D02*
X9444824Y-11312674D01*
X9444824Y-11312674D02*
X9463872Y-11303150D01*
X9463872Y-11303150D02*
X9482920Y-11303150D01*
X9549586Y-11436484D02*
X9549586Y-11303150D01*
X9549586Y-11236484D02*
X9540063Y-11246008D01*
X9540063Y-11246008D02*
X9549586Y-11255531D01*
X9549586Y-11255531D02*
X9559110Y-11246008D01*
X9559110Y-11246008D02*
X9549586Y-11236484D01*
X9549586Y-11236484D02*
X9549586Y-11255531D01*
X9673396Y-11436484D02*
X9654348Y-11426960D01*
X9654348Y-11426960D02*
X9644824Y-11407912D01*
X9644824Y-11407912D02*
X9644824Y-11236484D01*
X9778158Y-11436484D02*
X9759110Y-11426960D01*
X9759110Y-11426960D02*
X9749586Y-11407912D01*
X9749586Y-11407912D02*
X9749586Y-11236484D01*
X10006729Y-11436484D02*
X10006729Y-11236484D01*
X10006729Y-11236484D02*
X10073396Y-11379341D01*
X10073396Y-11379341D02*
X10140063Y-11236484D01*
X10140063Y-11236484D02*
X10140063Y-11436484D01*
X10321015Y-11436484D02*
X10321015Y-11331722D01*
X10321015Y-11331722D02*
X10311491Y-11312674D01*
X10311491Y-11312674D02*
X10292444Y-11303150D01*
X10292444Y-11303150D02*
X10254348Y-11303150D01*
X10254348Y-11303150D02*
X10235301Y-11312674D01*
X10321015Y-11426960D02*
X10301967Y-11436484D01*
X10301967Y-11436484D02*
X10254348Y-11436484D01*
X10254348Y-11436484D02*
X10235301Y-11426960D01*
X10235301Y-11426960D02*
X10225777Y-11407912D01*
X10225777Y-11407912D02*
X10225777Y-11388865D01*
X10225777Y-11388865D02*
X10235301Y-11369817D01*
X10235301Y-11369817D02*
X10254348Y-11360293D01*
X10254348Y-11360293D02*
X10301967Y-11360293D01*
X10301967Y-11360293D02*
X10321015Y-11350769D01*
X10416253Y-11303150D02*
X10416253Y-11503150D01*
X10416253Y-11312674D02*
X10435301Y-11303150D01*
X10435301Y-11303150D02*
X10473396Y-11303150D01*
X10473396Y-11303150D02*
X10492444Y-11312674D01*
X10492444Y-11312674D02*
X10501967Y-11322198D01*
X10501967Y-11322198D02*
X10511491Y-11341246D01*
X10511491Y-11341246D02*
X10511491Y-11398388D01*
X10511491Y-11398388D02*
X10501967Y-11417436D01*
X10501967Y-11417436D02*
X10492444Y-11426960D01*
X10492444Y-11426960D02*
X10473396Y-11436484D01*
X10473396Y-11436484D02*
X10435301Y-11436484D01*
X10435301Y-11436484D02*
X10416253Y-11426960D01*
X10597205Y-11417436D02*
X10606729Y-11426960D01*
X10606729Y-11426960D02*
X10597205Y-11436484D01*
X10597205Y-11436484D02*
X10587682Y-11426960D01*
X10587682Y-11426960D02*
X10597205Y-11417436D01*
X10597205Y-11417436D02*
X10597205Y-11436484D01*
X10597205Y-11312674D02*
X10606729Y-11322198D01*
X10606729Y-11322198D02*
X10597205Y-11331722D01*
X10597205Y-11331722D02*
X10587682Y-11322198D01*
X10587682Y-11322198D02*
X10597205Y-11312674D01*
X10597205Y-11312674D02*
X10597205Y-11331722D01*
X8765000Y-11665000D02*
X8965000Y-11865000D01*
X8965000Y-11665000D02*
X8765000Y-11865000D01*
X9216253Y-11675531D02*
X9225777Y-11666008D01*
X9225777Y-11666008D02*
X9244824Y-11656484D01*
X9244824Y-11656484D02*
X9292444Y-11656484D01*
X9292444Y-11656484D02*
X9311491Y-11666008D01*
X9311491Y-11666008D02*
X9321015Y-11675531D01*
X9321015Y-11675531D02*
X9330539Y-11694579D01*
X9330539Y-11694579D02*
X9330539Y-11713627D01*
X9330539Y-11713627D02*
X9321015Y-11742198D01*
X9321015Y-11742198D02*
X9206729Y-11856484D01*
X9206729Y-11856484D02*
X9330539Y-11856484D01*
X9416253Y-11837436D02*
X9425777Y-11846960D01*
X9425777Y-11846960D02*
X9416253Y-11856484D01*
X9416253Y-11856484D02*
X9406729Y-11846960D01*
X9406729Y-11846960D02*
X9416253Y-11837436D01*
X9416253Y-11837436D02*
X9416253Y-11856484D01*
X9501967Y-11675531D02*
X9511491Y-11666008D01*
X9511491Y-11666008D02*
X9530539Y-11656484D01*
X9530539Y-11656484D02*
X9578158Y-11656484D01*
X9578158Y-11656484D02*
X9597205Y-11666008D01*
X9597205Y-11666008D02*
X9606729Y-11675531D01*
X9606729Y-11675531D02*
X9616253Y-11694579D01*
X9616253Y-11694579D02*
X9616253Y-11713627D01*
X9616253Y-11713627D02*
X9606729Y-11742198D01*
X9606729Y-11742198D02*
X9492444Y-11856484D01*
X9492444Y-11856484D02*
X9616253Y-11856484D01*
X9740063Y-11656484D02*
X9759110Y-11656484D01*
X9759110Y-11656484D02*
X9778158Y-11666008D01*
X9778158Y-11666008D02*
X9787682Y-11675531D01*
X9787682Y-11675531D02*
X9797205Y-11694579D01*
X9797205Y-11694579D02*
X9806729Y-11732674D01*
X9806729Y-11732674D02*
X9806729Y-11780293D01*
X9806729Y-11780293D02*
X9797205Y-11818388D01*
X9797205Y-11818388D02*
X9787682Y-11837436D01*
X9787682Y-11837436D02*
X9778158Y-11846960D01*
X9778158Y-11846960D02*
X9759110Y-11856484D01*
X9759110Y-11856484D02*
X9740063Y-11856484D01*
X9740063Y-11856484D02*
X9721015Y-11846960D01*
X9721015Y-11846960D02*
X9711491Y-11837436D01*
X9711491Y-11837436D02*
X9701967Y-11818388D01*
X9701967Y-11818388D02*
X9692444Y-11780293D01*
X9692444Y-11780293D02*
X9692444Y-11732674D01*
X9692444Y-11732674D02*
X9701967Y-11694579D01*
X9701967Y-11694579D02*
X9711491Y-11675531D01*
X9711491Y-11675531D02*
X9721015Y-11666008D01*
X9721015Y-11666008D02*
X9740063Y-11656484D01*
X9930539Y-11656484D02*
X9949586Y-11656484D01*
X9949586Y-11656484D02*
X9968634Y-11666008D01*
X9968634Y-11666008D02*
X9978158Y-11675531D01*
X9978158Y-11675531D02*
X9987682Y-11694579D01*
X9987682Y-11694579D02*
X9997205Y-11732674D01*
X9997205Y-11732674D02*
X9997205Y-11780293D01*
X9997205Y-11780293D02*
X9987682Y-11818388D01*
X9987682Y-11818388D02*
X9978158Y-11837436D01*
X9978158Y-11837436D02*
X9968634Y-11846960D01*
X9968634Y-11846960D02*
X9949586Y-11856484D01*
X9949586Y-11856484D02*
X9930539Y-11856484D01*
X9930539Y-11856484D02*
X9911491Y-11846960D01*
X9911491Y-11846960D02*
X9901967Y-11837436D01*
X9901967Y-11837436D02*
X9892444Y-11818388D01*
X9892444Y-11818388D02*
X9882920Y-11780293D01*
X9882920Y-11780293D02*
X9882920Y-11732674D01*
X9882920Y-11732674D02*
X9892444Y-11694579D01*
X9892444Y-11694579D02*
X9901967Y-11675531D01*
X9901967Y-11675531D02*
X9911491Y-11666008D01*
X9911491Y-11666008D02*
X9930539Y-11656484D01*
X10082920Y-11856484D02*
X10082920Y-11723150D01*
X10082920Y-11742198D02*
X10092444Y-11732674D01*
X10092444Y-11732674D02*
X10111491Y-11723150D01*
X10111491Y-11723150D02*
X10140063Y-11723150D01*
X10140063Y-11723150D02*
X10159110Y-11732674D01*
X10159110Y-11732674D02*
X10168634Y-11751722D01*
X10168634Y-11751722D02*
X10168634Y-11856484D01*
X10168634Y-11751722D02*
X10178158Y-11732674D01*
X10178158Y-11732674D02*
X10197205Y-11723150D01*
X10197205Y-11723150D02*
X10225777Y-11723150D01*
X10225777Y-11723150D02*
X10244825Y-11732674D01*
X10244825Y-11732674D02*
X10254348Y-11751722D01*
X10254348Y-11751722D02*
X10254348Y-11856484D01*
X10349586Y-11856484D02*
X10349586Y-11723150D01*
X10349586Y-11742198D02*
X10359110Y-11732674D01*
X10359110Y-11732674D02*
X10378158Y-11723150D01*
X10378158Y-11723150D02*
X10406729Y-11723150D01*
X10406729Y-11723150D02*
X10425777Y-11732674D01*
X10425777Y-11732674D02*
X10435301Y-11751722D01*
X10435301Y-11751722D02*
X10435301Y-11856484D01*
X10435301Y-11751722D02*
X10444825Y-11732674D01*
X10444825Y-11732674D02*
X10463872Y-11723150D01*
X10463872Y-11723150D02*
X10492444Y-11723150D01*
X10492444Y-11723150D02*
X10511491Y-11732674D01*
X10511491Y-11732674D02*
X10521015Y-11751722D01*
X10521015Y-11751722D02*
X10521015Y-11856484D01*
X10911491Y-11646960D02*
X10740063Y-11904103D01*
X11168634Y-11656484D02*
X11187682Y-11656484D01*
X11187682Y-11656484D02*
X11206729Y-11666008D01*
X11206729Y-11666008D02*
X11216253Y-11675531D01*
X11216253Y-11675531D02*
X11225777Y-11694579D01*
X11225777Y-11694579D02*
X11235301Y-11732674D01*
X11235301Y-11732674D02*
X11235301Y-11780293D01*
X11235301Y-11780293D02*
X11225777Y-11818388D01*
X11225777Y-11818388D02*
X11216253Y-11837436D01*
X11216253Y-11837436D02*
X11206729Y-11846960D01*
X11206729Y-11846960D02*
X11187682Y-11856484D01*
X11187682Y-11856484D02*
X11168634Y-11856484D01*
X11168634Y-11856484D02*
X11149587Y-11846960D01*
X11149587Y-11846960D02*
X11140063Y-11837436D01*
X11140063Y-11837436D02*
X11130539Y-11818388D01*
X11130539Y-11818388D02*
X11121015Y-11780293D01*
X11121015Y-11780293D02*
X11121015Y-11732674D01*
X11121015Y-11732674D02*
X11130539Y-11694579D01*
X11130539Y-11694579D02*
X11140063Y-11675531D01*
X11140063Y-11675531D02*
X11149587Y-11666008D01*
X11149587Y-11666008D02*
X11168634Y-11656484D01*
X11321015Y-11837436D02*
X11330539Y-11846960D01*
X11330539Y-11846960D02*
X11321015Y-11856484D01*
X11321015Y-11856484D02*
X11311491Y-11846960D01*
X11311491Y-11846960D02*
X11321015Y-11837436D01*
X11321015Y-11837436D02*
X11321015Y-11856484D01*
X11454348Y-11656484D02*
X11473396Y-11656484D01*
X11473396Y-11656484D02*
X11492444Y-11666008D01*
X11492444Y-11666008D02*
X11501967Y-11675531D01*
X11501967Y-11675531D02*
X11511491Y-11694579D01*
X11511491Y-11694579D02*
X11521015Y-11732674D01*
X11521015Y-11732674D02*
X11521015Y-11780293D01*
X11521015Y-11780293D02*
X11511491Y-11818388D01*
X11511491Y-11818388D02*
X11501967Y-11837436D01*
X11501967Y-11837436D02*
X11492444Y-11846960D01*
X11492444Y-11846960D02*
X11473396Y-11856484D01*
X11473396Y-11856484D02*
X11454348Y-11856484D01*
X11454348Y-11856484D02*
X11435301Y-11846960D01*
X11435301Y-11846960D02*
X11425777Y-11837436D01*
X11425777Y-11837436D02*
X11416253Y-11818388D01*
X11416253Y-11818388D02*
X11406729Y-11780293D01*
X11406729Y-11780293D02*
X11406729Y-11732674D01*
X11406729Y-11732674D02*
X11416253Y-11694579D01*
X11416253Y-11694579D02*
X11425777Y-11675531D01*
X11425777Y-11675531D02*
X11435301Y-11666008D01*
X11435301Y-11666008D02*
X11454348Y-11656484D01*
X11635301Y-11742198D02*
X11616253Y-11732674D01*
X11616253Y-11732674D02*
X11606729Y-11723150D01*
X11606729Y-11723150D02*
X11597206Y-11704103D01*
X11597206Y-11704103D02*
X11597206Y-11694579D01*
X11597206Y-11694579D02*
X11606729Y-11675531D01*
X11606729Y-11675531D02*
X11616253Y-11666008D01*
X11616253Y-11666008D02*
X11635301Y-11656484D01*
X11635301Y-11656484D02*
X11673396Y-11656484D01*
X11673396Y-11656484D02*
X11692444Y-11666008D01*
X11692444Y-11666008D02*
X11701967Y-11675531D01*
X11701967Y-11675531D02*
X11711491Y-11694579D01*
X11711491Y-11694579D02*
X11711491Y-11704103D01*
X11711491Y-11704103D02*
X11701967Y-11723150D01*
X11701967Y-11723150D02*
X11692444Y-11732674D01*
X11692444Y-11732674D02*
X11673396Y-11742198D01*
X11673396Y-11742198D02*
X11635301Y-11742198D01*
X11635301Y-11742198D02*
X11616253Y-11751722D01*
X11616253Y-11751722D02*
X11606729Y-11761246D01*
X11606729Y-11761246D02*
X11597206Y-11780293D01*
X11597206Y-11780293D02*
X11597206Y-11818388D01*
X11597206Y-11818388D02*
X11606729Y-11837436D01*
X11606729Y-11837436D02*
X11616253Y-11846960D01*
X11616253Y-11846960D02*
X11635301Y-11856484D01*
X11635301Y-11856484D02*
X11673396Y-11856484D01*
X11673396Y-11856484D02*
X11692444Y-11846960D01*
X11692444Y-11846960D02*
X11701967Y-11837436D01*
X11701967Y-11837436D02*
X11711491Y-11818388D01*
X11711491Y-11818388D02*
X11711491Y-11780293D01*
X11711491Y-11780293D02*
X11701967Y-11761246D01*
X11701967Y-11761246D02*
X11692444Y-11751722D01*
X11692444Y-11751722D02*
X11673396Y-11742198D01*
X11882920Y-11656484D02*
X11844825Y-11656484D01*
X11844825Y-11656484D02*
X11825777Y-11666008D01*
X11825777Y-11666008D02*
X11816253Y-11675531D01*
X11816253Y-11675531D02*
X11797206Y-11704103D01*
X11797206Y-11704103D02*
X11787682Y-11742198D01*
X11787682Y-11742198D02*
X11787682Y-11818388D01*
X11787682Y-11818388D02*
X11797206Y-11837436D01*
X11797206Y-11837436D02*
X11806729Y-11846960D01*
X11806729Y-11846960D02*
X11825777Y-11856484D01*
X11825777Y-11856484D02*
X11863872Y-11856484D01*
X11863872Y-11856484D02*
X11882920Y-11846960D01*
X11882920Y-11846960D02*
X11892444Y-11837436D01*
X11892444Y-11837436D02*
X11901967Y-11818388D01*
X11901967Y-11818388D02*
X11901967Y-11770769D01*
X11901967Y-11770769D02*
X11892444Y-11751722D01*
X11892444Y-11751722D02*
X11882920Y-11742198D01*
X11882920Y-11742198D02*
X11863872Y-11732674D01*
X11863872Y-11732674D02*
X11825777Y-11732674D01*
X11825777Y-11732674D02*
X11806729Y-11742198D01*
X11806729Y-11742198D02*
X11797206Y-11751722D01*
X11797206Y-11751722D02*
X11787682Y-11770769D01*
X12073396Y-11656484D02*
X12035301Y-11656484D01*
X12035301Y-11656484D02*
X12016253Y-11666008D01*
X12016253Y-11666008D02*
X12006729Y-11675531D01*
X12006729Y-11675531D02*
X11987682Y-11704103D01*
X11987682Y-11704103D02*
X11978158Y-11742198D01*
X11978158Y-11742198D02*
X11978158Y-11818388D01*
X11978158Y-11818388D02*
X11987682Y-11837436D01*
X11987682Y-11837436D02*
X11997206Y-11846960D01*
X11997206Y-11846960D02*
X12016253Y-11856484D01*
X12016253Y-11856484D02*
X12054348Y-11856484D01*
X12054348Y-11856484D02*
X12073396Y-11846960D01*
X12073396Y-11846960D02*
X12082920Y-11837436D01*
X12082920Y-11837436D02*
X12092444Y-11818388D01*
X12092444Y-11818388D02*
X12092444Y-11770769D01*
X12092444Y-11770769D02*
X12082920Y-11751722D01*
X12082920Y-11751722D02*
X12073396Y-11742198D01*
X12073396Y-11742198D02*
X12054348Y-11732674D01*
X12054348Y-11732674D02*
X12016253Y-11732674D01*
X12016253Y-11732674D02*
X11997206Y-11742198D01*
X11997206Y-11742198D02*
X11987682Y-11751722D01*
X11987682Y-11751722D02*
X11978158Y-11770769D01*
X12168634Y-11656484D02*
X12168634Y-11694579D01*
X12244825Y-11656484D02*
X12244825Y-11694579D01*
X12540063Y-11932674D02*
X12530539Y-11923150D01*
X12530539Y-11923150D02*
X12511491Y-11894579D01*
X12511491Y-11894579D02*
X12501968Y-11875531D01*
X12501968Y-11875531D02*
X12492444Y-11846960D01*
X12492444Y-11846960D02*
X12482920Y-11799341D01*
X12482920Y-11799341D02*
X12482920Y-11761246D01*
X12482920Y-11761246D02*
X12492444Y-11713627D01*
X12492444Y-11713627D02*
X12501968Y-11685055D01*
X12501968Y-11685055D02*
X12511491Y-11666008D01*
X12511491Y-11666008D02*
X12530539Y-11637436D01*
X12530539Y-11637436D02*
X12540063Y-11627912D01*
X12606729Y-11675531D02*
X12616253Y-11666008D01*
X12616253Y-11666008D02*
X12635301Y-11656484D01*
X12635301Y-11656484D02*
X12682920Y-11656484D01*
X12682920Y-11656484D02*
X12701968Y-11666008D01*
X12701968Y-11666008D02*
X12711491Y-11675531D01*
X12711491Y-11675531D02*
X12721015Y-11694579D01*
X12721015Y-11694579D02*
X12721015Y-11713627D01*
X12721015Y-11713627D02*
X12711491Y-11742198D01*
X12711491Y-11742198D02*
X12597206Y-11856484D01*
X12597206Y-11856484D02*
X12721015Y-11856484D01*
X12959110Y-11856484D02*
X12959110Y-11656484D01*
X13044825Y-11856484D02*
X13044825Y-11751722D01*
X13044825Y-11751722D02*
X13035301Y-11732674D01*
X13035301Y-11732674D02*
X13016253Y-11723150D01*
X13016253Y-11723150D02*
X12987682Y-11723150D01*
X12987682Y-11723150D02*
X12968634Y-11732674D01*
X12968634Y-11732674D02*
X12959110Y-11742198D01*
X13168634Y-11856484D02*
X13149587Y-11846960D01*
X13149587Y-11846960D02*
X13140063Y-11837436D01*
X13140063Y-11837436D02*
X13130539Y-11818388D01*
X13130539Y-11818388D02*
X13130539Y-11761246D01*
X13130539Y-11761246D02*
X13140063Y-11742198D01*
X13140063Y-11742198D02*
X13149587Y-11732674D01*
X13149587Y-11732674D02*
X13168634Y-11723150D01*
X13168634Y-11723150D02*
X13197206Y-11723150D01*
X13197206Y-11723150D02*
X13216253Y-11732674D01*
X13216253Y-11732674D02*
X13225777Y-11742198D01*
X13225777Y-11742198D02*
X13235301Y-11761246D01*
X13235301Y-11761246D02*
X13235301Y-11818388D01*
X13235301Y-11818388D02*
X13225777Y-11837436D01*
X13225777Y-11837436D02*
X13216253Y-11846960D01*
X13216253Y-11846960D02*
X13197206Y-11856484D01*
X13197206Y-11856484D02*
X13168634Y-11856484D01*
X13349587Y-11856484D02*
X13330539Y-11846960D01*
X13330539Y-11846960D02*
X13321015Y-11827912D01*
X13321015Y-11827912D02*
X13321015Y-11656484D01*
X13501968Y-11846960D02*
X13482920Y-11856484D01*
X13482920Y-11856484D02*
X13444825Y-11856484D01*
X13444825Y-11856484D02*
X13425777Y-11846960D01*
X13425777Y-11846960D02*
X13416253Y-11827912D01*
X13416253Y-11827912D02*
X13416253Y-11751722D01*
X13416253Y-11751722D02*
X13425777Y-11732674D01*
X13425777Y-11732674D02*
X13444825Y-11723150D01*
X13444825Y-11723150D02*
X13482920Y-11723150D01*
X13482920Y-11723150D02*
X13501968Y-11732674D01*
X13501968Y-11732674D02*
X13511491Y-11751722D01*
X13511491Y-11751722D02*
X13511491Y-11770769D01*
X13511491Y-11770769D02*
X13416253Y-11789817D01*
X13587682Y-11846960D02*
X13606730Y-11856484D01*
X13606730Y-11856484D02*
X13644825Y-11856484D01*
X13644825Y-11856484D02*
X13663872Y-11846960D01*
X13663872Y-11846960D02*
X13673396Y-11827912D01*
X13673396Y-11827912D02*
X13673396Y-11818388D01*
X13673396Y-11818388D02*
X13663872Y-11799341D01*
X13663872Y-11799341D02*
X13644825Y-11789817D01*
X13644825Y-11789817D02*
X13616253Y-11789817D01*
X13616253Y-11789817D02*
X13597206Y-11780293D01*
X13597206Y-11780293D02*
X13587682Y-11761246D01*
X13587682Y-11761246D02*
X13587682Y-11751722D01*
X13587682Y-11751722D02*
X13597206Y-11732674D01*
X13597206Y-11732674D02*
X13616253Y-11723150D01*
X13616253Y-11723150D02*
X13644825Y-11723150D01*
X13644825Y-11723150D02*
X13663872Y-11732674D01*
X13740063Y-11932674D02*
X13749587Y-11923150D01*
X13749587Y-11923150D02*
X13768634Y-11894579D01*
X13768634Y-11894579D02*
X13778158Y-11875531D01*
X13778158Y-11875531D02*
X13787682Y-11846960D01*
X13787682Y-11846960D02*
X13797206Y-11799341D01*
X13797206Y-11799341D02*
X13797206Y-11761246D01*
X13797206Y-11761246D02*
X13787682Y-11713627D01*
X13787682Y-11713627D02*
X13778158Y-11685055D01*
X13778158Y-11685055D02*
X13768634Y-11666008D01*
X13768634Y-11666008D02*
X13749587Y-11637436D01*
X13749587Y-11637436D02*
X13740063Y-11627912D01*
X14101968Y-11932674D02*
X14092444Y-11923150D01*
X14092444Y-11923150D02*
X14073396Y-11894579D01*
X14073396Y-11894579D02*
X14063872Y-11875531D01*
X14063872Y-11875531D02*
X14054349Y-11846960D01*
X14054349Y-11846960D02*
X14044825Y-11799341D01*
X14044825Y-11799341D02*
X14044825Y-11761246D01*
X14044825Y-11761246D02*
X14054349Y-11713627D01*
X14054349Y-11713627D02*
X14063872Y-11685055D01*
X14063872Y-11685055D02*
X14073396Y-11666008D01*
X14073396Y-11666008D02*
X14092444Y-11637436D01*
X14092444Y-11637436D02*
X14101968Y-11627912D01*
X14178158Y-11723150D02*
X14178158Y-11856484D01*
X14178158Y-11742198D02*
X14187682Y-11732674D01*
X14187682Y-11732674D02*
X14206730Y-11723150D01*
X14206730Y-11723150D02*
X14235301Y-11723150D01*
X14235301Y-11723150D02*
X14254349Y-11732674D01*
X14254349Y-11732674D02*
X14263872Y-11751722D01*
X14263872Y-11751722D02*
X14263872Y-11856484D01*
X14387682Y-11856484D02*
X14368634Y-11846960D01*
X14368634Y-11846960D02*
X14359111Y-11837436D01*
X14359111Y-11837436D02*
X14349587Y-11818388D01*
X14349587Y-11818388D02*
X14349587Y-11761246D01*
X14349587Y-11761246D02*
X14359111Y-11742198D01*
X14359111Y-11742198D02*
X14368634Y-11732674D01*
X14368634Y-11732674D02*
X14387682Y-11723150D01*
X14387682Y-11723150D02*
X14416253Y-11723150D01*
X14416253Y-11723150D02*
X14435301Y-11732674D01*
X14435301Y-11732674D02*
X14444825Y-11742198D01*
X14444825Y-11742198D02*
X14454349Y-11761246D01*
X14454349Y-11761246D02*
X14454349Y-11818388D01*
X14454349Y-11818388D02*
X14444825Y-11837436D01*
X14444825Y-11837436D02*
X14435301Y-11846960D01*
X14435301Y-11846960D02*
X14416253Y-11856484D01*
X14416253Y-11856484D02*
X14387682Y-11856484D01*
X14511492Y-11723150D02*
X14587682Y-11723150D01*
X14540063Y-11656484D02*
X14540063Y-11827912D01*
X14540063Y-11827912D02*
X14549587Y-11846960D01*
X14549587Y-11846960D02*
X14568634Y-11856484D01*
X14568634Y-11856484D02*
X14587682Y-11856484D01*
X14806730Y-11723150D02*
X14806730Y-11923150D01*
X14806730Y-11732674D02*
X14825777Y-11723150D01*
X14825777Y-11723150D02*
X14863873Y-11723150D01*
X14863873Y-11723150D02*
X14882920Y-11732674D01*
X14882920Y-11732674D02*
X14892444Y-11742198D01*
X14892444Y-11742198D02*
X14901968Y-11761246D01*
X14901968Y-11761246D02*
X14901968Y-11818388D01*
X14901968Y-11818388D02*
X14892444Y-11837436D01*
X14892444Y-11837436D02*
X14882920Y-11846960D01*
X14882920Y-11846960D02*
X14863873Y-11856484D01*
X14863873Y-11856484D02*
X14825777Y-11856484D01*
X14825777Y-11856484D02*
X14806730Y-11846960D01*
X15016253Y-11856484D02*
X14997206Y-11846960D01*
X14997206Y-11846960D02*
X14987682Y-11827912D01*
X14987682Y-11827912D02*
X14987682Y-11656484D01*
X15178158Y-11856484D02*
X15178158Y-11751722D01*
X15178158Y-11751722D02*
X15168634Y-11732674D01*
X15168634Y-11732674D02*
X15149587Y-11723150D01*
X15149587Y-11723150D02*
X15111492Y-11723150D01*
X15111492Y-11723150D02*
X15092444Y-11732674D01*
X15178158Y-11846960D02*
X15159111Y-11856484D01*
X15159111Y-11856484D02*
X15111492Y-11856484D01*
X15111492Y-11856484D02*
X15092444Y-11846960D01*
X15092444Y-11846960D02*
X15082920Y-11827912D01*
X15082920Y-11827912D02*
X15082920Y-11808865D01*
X15082920Y-11808865D02*
X15092444Y-11789817D01*
X15092444Y-11789817D02*
X15111492Y-11780293D01*
X15111492Y-11780293D02*
X15159111Y-11780293D01*
X15159111Y-11780293D02*
X15178158Y-11770769D01*
X15244825Y-11723150D02*
X15321015Y-11723150D01*
X15273396Y-11656484D02*
X15273396Y-11827912D01*
X15273396Y-11827912D02*
X15282920Y-11846960D01*
X15282920Y-11846960D02*
X15301968Y-11856484D01*
X15301968Y-11856484D02*
X15321015Y-11856484D01*
X15463873Y-11846960D02*
X15444825Y-11856484D01*
X15444825Y-11856484D02*
X15406730Y-11856484D01*
X15406730Y-11856484D02*
X15387682Y-11846960D01*
X15387682Y-11846960D02*
X15378158Y-11827912D01*
X15378158Y-11827912D02*
X15378158Y-11751722D01*
X15378158Y-11751722D02*
X15387682Y-11732674D01*
X15387682Y-11732674D02*
X15406730Y-11723150D01*
X15406730Y-11723150D02*
X15444825Y-11723150D01*
X15444825Y-11723150D02*
X15463873Y-11732674D01*
X15463873Y-11732674D02*
X15473396Y-11751722D01*
X15473396Y-11751722D02*
X15473396Y-11770769D01*
X15473396Y-11770769D02*
X15378158Y-11789817D01*
X15644825Y-11856484D02*
X15644825Y-11656484D01*
X15644825Y-11846960D02*
X15625777Y-11856484D01*
X15625777Y-11856484D02*
X15587682Y-11856484D01*
X15587682Y-11856484D02*
X15568634Y-11846960D01*
X15568634Y-11846960D02*
X15559111Y-11837436D01*
X15559111Y-11837436D02*
X15549587Y-11818388D01*
X15549587Y-11818388D02*
X15549587Y-11761246D01*
X15549587Y-11761246D02*
X15559111Y-11742198D01*
X15559111Y-11742198D02*
X15568634Y-11732674D01*
X15568634Y-11732674D02*
X15587682Y-11723150D01*
X15587682Y-11723150D02*
X15625777Y-11723150D01*
X15625777Y-11723150D02*
X15644825Y-11732674D01*
X15721015Y-11932674D02*
X15730539Y-11923150D01*
X15730539Y-11923150D02*
X15749587Y-11894579D01*
X15749587Y-11894579D02*
X15759111Y-11875531D01*
X15759111Y-11875531D02*
X15768634Y-11846960D01*
X15768634Y-11846960D02*
X15778158Y-11799341D01*
X15778158Y-11799341D02*
X15778158Y-11761246D01*
X15778158Y-11761246D02*
X15768634Y-11713627D01*
X15768634Y-11713627D02*
X15759111Y-11685055D01*
X15759111Y-11685055D02*
X15749587Y-11666008D01*
X15749587Y-11666008D02*
X15730539Y-11637436D01*
X15730539Y-11637436D02*
X15721015Y-11627912D01*
M02*
