%TF.GenerationSoftware,KiCad,Pcbnew,10.0.6*%
%TF.CreationDate,2026-10-10T11:00:00+02:00*%
%TF.ProjectId,joystick,6a6f7973-7469-4636-9b2e-6b696361645f,rev?*%
%TF.SameCoordinates,Original*%
%TF.FileFunction,Legend,Top*%
%TF.FilePolarity,Positive*%
%FSLAX46Y46*%
G04 Gerber Fmt 4.6, Leading zero omitted, Abs format (unit mm)*
G04 Created by KiCad (PCBNEW 10.0.6) date 2026-10-10 11:00:00*
%MOMM*%
%LPD*%
G01*
G04 APERTURE LIST*
%ADD10C,0.120000*%
%ADD11C,2.200000*%
%ADD12R,1.200000X2.100000*%
G04 APERTURE END LIST*
%TO.C,SW1*%
D10*
X96900000Y-96350000D02*
X96900000Y-90150000D01*
X98750000Y-90150000D02*
X101250000Y-90150000D01*
X98750000Y-96350000D02*
X101250000Y-96350000D01*
X103100000Y-96350000D02*
X103100000Y-90150000D01*
X101450000Y-93250000D02*
G75*
G02*
X98550000Y-93250000I-1450000J0D01*
G01*
X98550000Y-93250000D02*
G75*
G02*
X101450000Y-93250000I1450000J0D01*
G01*
%TO.C,SW3*%
X90150000Y-103100000D02*
X90150000Y-96900000D01*
X92000000Y-96900000D02*
X94500000Y-96900000D01*
X92000000Y-103100000D02*
X94500000Y-103100000D01*
X96350000Y-103100000D02*
X96350000Y-96900000D01*
X94700000Y-100000000D02*
G75*
G02*
X91800000Y-100000000I-1450000J0D01*
G01*
X91800000Y-100000000D02*
G75*
G02*
X94700000Y-100000000I1450000J0D01*
G01*
%TO.C,SW4*%
X103650000Y-103100000D02*
X103650000Y-96900000D01*
X105500000Y-96900000D02*
X108000000Y-96900000D01*
X105500000Y-103100000D02*
X108000000Y-103100000D01*
X109850000Y-103100000D02*
X109850000Y-96900000D01*
X108200000Y-100000000D02*
G75*
G02*
X105300000Y-100000000I-1450000J0D01*
G01*
X105300000Y-100000000D02*
G75*
G02*
X108200000Y-100000000I1450000J0D01*
G01*
%TO.C,SW2*%
X96900000Y-109850000D02*
X96900000Y-103650000D01*
X98750000Y-103650000D02*
X101250000Y-103650000D01*
X98750000Y-109850000D02*
X101250000Y-109850000D01*
X103100000Y-109850000D02*
X103100000Y-103650000D01*
X101450000Y-106750000D02*
G75*
G02*
X98550000Y-106750000I-1450000J0D01*
G01*
X98550000Y-106750000D02*
G75*
G02*
X101450000Y-106750000I1450000J0D01*
G01*
%TD*%
%LPC*%
D11*
%TO.C,H1*%
X106000000Y-93600000D03*
%TD*%
D12*
%TO.C,SW1*%
X98000000Y-96250000D03*
X98000000Y-90250000D03*
X102000000Y-96250000D03*
X102000000Y-90250000D03*
%TD*%
%TO.C,SW3*%
X91250000Y-103000000D03*
X91250000Y-97000000D03*
X95250000Y-103000000D03*
X95250000Y-97000000D03*
%TD*%
%TO.C,SW4*%
X104750000Y-103000000D03*
X104750000Y-97000000D03*
X108750000Y-103000000D03*
X108750000Y-97000000D03*
%TD*%
D11*
%TO.C,H2*%
X94000000Y-106400000D03*
%TD*%
D12*
%TO.C,SW2*%
X98000000Y-109750000D03*
X98000000Y-103750000D03*
X102000000Y-109750000D03*
X102000000Y-103750000D03*
%TD*%
%LPD*%
M02*
