%TF.GenerationSoftware,KiCad,Pcbnew,10.0.6*%
%TF.CreationDate,2026-10-10T11:00:00+02:00*%
%TF.ProjectId,joystick,6a6f7973-7469-4636-9b2e-6b696361645f,rev?*%
%TF.SameCoordinates,Original*%
%TF.FileFunction,Legend,Bot*%
%TF.FilePolarity,Positive*%
%FSLAX46Y46*%
G04 Gerber Fmt 4.6, Leading zero omitted, Abs format (unit mm)*
G04 Created by KiCad (PCBNEW 10.0.6) date 2026-10-10 11:00:00*
%MOMM*%
%LPD*%
G01*
G04 APERTURE LIST*
G04 Aperture macros list*
%AMRoundRect*
0 Rectangle with rounded corners*
0 $1 Rounding radius*
0 $2 $3 $4 $5 $6 $7 $8 $9 X,Y pos of 4 corners*
0 Add a 4 corners polygon primitive as box body*
4,1,4,$2,$3,$4,$5,$6,$7,$8,$9,$2,$3,0*
0 Add four circle primitives for the rounded corners*
1,1,$1+$1,$2,$3*
1,1,$1+$1,$4,$5*
1,1,$1+$1,$6,$7*
1,1,$1+$1,$8,$9*
0 Add four rect primitives between the rounded corners*
20,1,$1+$1,$2,$3,$4,$5,0*
20,1,$1+$1,$4,$5,$6,$7,0*
20,1,$1+$1,$6,$7,$8,$9,0*
20,1,$1+$1,$8,$9,$2,$3,0*%
G04 Aperture macros list end*
%ADD10C,0.120000*%
%ADD11C,2.200000*%
%ADD12RoundRect,0.250000X1.000000X0.900000X-1.000000X0.900000X-1.000000X-0.900000X1.000000X-0.900000X0*%
%ADD13RoundRect,0.270000X0.630000X0.630000X-0.630000X0.630000X-0.630000X-0.630000X0.630000X-0.630000X0*%
%ADD14RoundRect,0.195000X0.455000X0.455000X-0.455000X0.455000X-0.455000X-0.455000X0.455000X-0.455000X0*%
%ADD15RoundRect,0.250000X-0.312500X-1.450000X0.312500X-1.450000X0.312500X1.450000X-0.312500X1.450000X0*%
G04 APERTURE END LIST*
D10*
X94876189Y-100763855D02*
X94609522Y-101563855D01*
X94609522Y-101563855D02*
X94342856Y-100763855D01*
X94076189Y-101563855D02*
X94076189Y-100763855D01*
X93695237Y-101563855D02*
X93695237Y-100763855D01*
X93695237Y-100763855D02*
X93238094Y-101563855D01*
X93238094Y-101563855D02*
X93238094Y-100763855D01*
X94609523Y-103201950D02*
X94685713Y-103163855D01*
X94685713Y-103163855D02*
X94799999Y-103163855D01*
X94799999Y-103163855D02*
X94914285Y-103201950D01*
X94914285Y-103201950D02*
X94990475Y-103278140D01*
X94990475Y-103278140D02*
X95028570Y-103354331D01*
X95028570Y-103354331D02*
X95066666Y-103506712D01*
X95066666Y-103506712D02*
X95066666Y-103620998D01*
X95066666Y-103620998D02*
X95028570Y-103773379D01*
X95028570Y-103773379D02*
X94990475Y-103849569D01*
X94990475Y-103849569D02*
X94914285Y-103925760D01*
X94914285Y-103925760D02*
X94799999Y-103963855D01*
X94799999Y-103963855D02*
X94723808Y-103963855D01*
X94723808Y-103963855D02*
X94609523Y-103925760D01*
X94609523Y-103925760D02*
X94571427Y-103887664D01*
X94571427Y-103887664D02*
X94571427Y-103620998D01*
X94571427Y-103620998D02*
X94723808Y-103620998D01*
X94228570Y-103963855D02*
X94228570Y-103163855D01*
X94228570Y-103163855D02*
X93771427Y-103963855D01*
X93771427Y-103963855D02*
X93771427Y-103163855D01*
X93390475Y-103963855D02*
X93390475Y-103163855D01*
X93390475Y-103163855D02*
X93199999Y-103163855D01*
X93199999Y-103163855D02*
X93085713Y-103201950D01*
X93085713Y-103201950D02*
X93009523Y-103278140D01*
X93009523Y-103278140D02*
X92971428Y-103354331D01*
X92971428Y-103354331D02*
X92933332Y-103506712D01*
X92933332Y-103506712D02*
X92933332Y-103620998D01*
X92933332Y-103620998D02*
X92971428Y-103773379D01*
X92971428Y-103773379D02*
X93009523Y-103849569D01*
X93009523Y-103849569D02*
X93085713Y-103925760D01*
X93085713Y-103925760D02*
X93199999Y-103963855D01*
X93199999Y-103963855D02*
X93390475Y-103963855D01*
X94502380Y-91813855D02*
X94883332Y-91813855D01*
X94883332Y-91813855D02*
X94883332Y-91013855D01*
X96640476Y-91051950D02*
X96716666Y-91013855D01*
X96716666Y-91013855D02*
X96830952Y-91013855D01*
X96830952Y-91013855D02*
X96945238Y-91051950D01*
X96945238Y-91051950D02*
X97021428Y-91128140D01*
X97021428Y-91128140D02*
X97059523Y-91204331D01*
X97059523Y-91204331D02*
X97097619Y-91356712D01*
X97097619Y-91356712D02*
X97097619Y-91470998D01*
X97097619Y-91470998D02*
X97059523Y-91623379D01*
X97059523Y-91623379D02*
X97021428Y-91699569D01*
X97021428Y-91699569D02*
X96945238Y-91775760D01*
X96945238Y-91775760D02*
X96830952Y-91813855D01*
X96830952Y-91813855D02*
X96754761Y-91813855D01*
X96754761Y-91813855D02*
X96640476Y-91775760D01*
X96640476Y-91775760D02*
X96602380Y-91737664D01*
X96602380Y-91737664D02*
X96602380Y-91470998D01*
X96602380Y-91470998D02*
X96754761Y-91470998D01*
X99502380Y-91013855D02*
X99883332Y-91013855D01*
X99883332Y-91013855D02*
X99921428Y-91394807D01*
X99921428Y-91394807D02*
X99883332Y-91356712D01*
X99883332Y-91356712D02*
X99807142Y-91318617D01*
X99807142Y-91318617D02*
X99616666Y-91318617D01*
X99616666Y-91318617D02*
X99540475Y-91356712D01*
X99540475Y-91356712D02*
X99502380Y-91394807D01*
X99502380Y-91394807D02*
X99464285Y-91470998D01*
X99464285Y-91470998D02*
X99464285Y-91661474D01*
X99464285Y-91661474D02*
X99502380Y-91737664D01*
X99502380Y-91737664D02*
X99540475Y-91775760D01*
X99540475Y-91775760D02*
X99616666Y-91813855D01*
X99616666Y-91813855D02*
X99807142Y-91813855D01*
X99807142Y-91813855D02*
X99883332Y-91775760D01*
X99883332Y-91775760D02*
X99921428Y-91737664D01*
X99235713Y-91013855D02*
X98969046Y-91813855D01*
X98969046Y-91813855D02*
X98702380Y-91013855D01*
X101278570Y-91013855D02*
X101278570Y-91661474D01*
X101278570Y-91661474D02*
X101240475Y-91737664D01*
X101240475Y-91737664D02*
X101202380Y-91775760D01*
X101202380Y-91775760D02*
X101126189Y-91813855D01*
X101126189Y-91813855D02*
X100973808Y-91813855D01*
X100973808Y-91813855D02*
X100897618Y-91775760D01*
X100897618Y-91775760D02*
X100859523Y-91737664D01*
X100859523Y-91737664D02*
X100821427Y-91661474D01*
X100821427Y-91661474D02*
X100821427Y-91013855D01*
X105728570Y-107763855D02*
X105576189Y-107763855D01*
X105576189Y-107763855D02*
X105499999Y-107801950D01*
X105499999Y-107801950D02*
X105423808Y-107878140D01*
X105423808Y-107878140D02*
X105385713Y-108030521D01*
X105385713Y-108030521D02*
X105385713Y-108297188D01*
X105385713Y-108297188D02*
X105423808Y-108449569D01*
X105423808Y-108449569D02*
X105499999Y-108525760D01*
X105499999Y-108525760D02*
X105576189Y-108563855D01*
X105576189Y-108563855D02*
X105728570Y-108563855D01*
X105728570Y-108563855D02*
X105804761Y-108525760D01*
X105804761Y-108525760D02*
X105880951Y-108449569D01*
X105880951Y-108449569D02*
X105919047Y-108297188D01*
X105919047Y-108297188D02*
X105919047Y-108030521D01*
X105919047Y-108030521D02*
X105880951Y-107878140D01*
X105880951Y-107878140D02*
X105804761Y-107801950D01*
X105804761Y-107801950D02*
X105728570Y-107763855D01*
X104585713Y-108563855D02*
X104852380Y-108182902D01*
X105042856Y-108563855D02*
X105042856Y-107763855D01*
X105042856Y-107763855D02*
X104738094Y-107763855D01*
X104738094Y-107763855D02*
X104661904Y-107801950D01*
X104661904Y-107801950D02*
X104623809Y-107840045D01*
X104623809Y-107840045D02*
X104585713Y-107916236D01*
X104585713Y-107916236D02*
X104585713Y-108030521D01*
X104585713Y-108030521D02*
X104623809Y-108106712D01*
X104623809Y-108106712D02*
X104661904Y-108144807D01*
X104661904Y-108144807D02*
X104738094Y-108182902D01*
X104738094Y-108182902D02*
X105042856Y-108182902D01*
X103785713Y-108563855D02*
X104052380Y-108182902D01*
X104242856Y-108563855D02*
X104242856Y-107763855D01*
X104242856Y-107763855D02*
X103938094Y-107763855D01*
X103938094Y-107763855D02*
X103861904Y-107801950D01*
X103861904Y-107801950D02*
X103823809Y-107840045D01*
X103823809Y-107840045D02*
X103785713Y-107916236D01*
X103785713Y-107916236D02*
X103785713Y-108030521D01*
X103785713Y-108030521D02*
X103823809Y-108106712D01*
X103823809Y-108106712D02*
X103861904Y-108144807D01*
X103861904Y-108144807D02*
X103938094Y-108182902D01*
X103938094Y-108182902D02*
X104242856Y-108182902D01*
X102604761Y-107763855D02*
X102604761Y-108335283D01*
X102604761Y-108335283D02*
X102642856Y-108449569D01*
X102642856Y-108449569D02*
X102719047Y-108525760D01*
X102719047Y-108525760D02*
X102833332Y-108563855D01*
X102833332Y-108563855D02*
X102909523Y-108563855D01*
X102071427Y-107763855D02*
X101919046Y-107763855D01*
X101919046Y-107763855D02*
X101842856Y-107801950D01*
X101842856Y-107801950D02*
X101766665Y-107878140D01*
X101766665Y-107878140D02*
X101728570Y-108030521D01*
X101728570Y-108030521D02*
X101728570Y-108297188D01*
X101728570Y-108297188D02*
X101766665Y-108449569D01*
X101766665Y-108449569D02*
X101842856Y-108525760D01*
X101842856Y-108525760D02*
X101919046Y-108563855D01*
X101919046Y-108563855D02*
X102071427Y-108563855D01*
X102071427Y-108563855D02*
X102147618Y-108525760D01*
X102147618Y-108525760D02*
X102223808Y-108449569D01*
X102223808Y-108449569D02*
X102261904Y-108297188D01*
X102261904Y-108297188D02*
X102261904Y-108030521D01*
X102261904Y-108030521D02*
X102223808Y-107878140D01*
X102223808Y-107878140D02*
X102147618Y-107801950D01*
X102147618Y-107801950D02*
X102071427Y-107763855D01*
X101233332Y-108182902D02*
X101233332Y-108563855D01*
X101499999Y-107763855D02*
X101233332Y-108182902D01*
X101233332Y-108182902D02*
X100966666Y-107763855D01*
X100204761Y-107763855D02*
X99938094Y-108563855D01*
X99938094Y-108563855D02*
X99671428Y-107763855D01*
X99252380Y-107763855D02*
X99176190Y-107763855D01*
X99176190Y-107763855D02*
X99099999Y-107801950D01*
X99099999Y-107801950D02*
X99061904Y-107840045D01*
X99061904Y-107840045D02*
X99023809Y-107916236D01*
X99023809Y-107916236D02*
X98985714Y-108068617D01*
X98985714Y-108068617D02*
X98985714Y-108259093D01*
X98985714Y-108259093D02*
X99023809Y-108411474D01*
X99023809Y-108411474D02*
X99061904Y-108487664D01*
X99061904Y-108487664D02*
X99099999Y-108525760D01*
X99099999Y-108525760D02*
X99176190Y-108563855D01*
X99176190Y-108563855D02*
X99252380Y-108563855D01*
X99252380Y-108563855D02*
X99328571Y-108525760D01*
X99328571Y-108525760D02*
X99366666Y-108487664D01*
X99366666Y-108487664D02*
X99404761Y-108411474D01*
X99404761Y-108411474D02*
X99442857Y-108259093D01*
X99442857Y-108259093D02*
X99442857Y-108068617D01*
X99442857Y-108068617D02*
X99404761Y-107916236D01*
X99404761Y-107916236D02*
X99366666Y-107840045D01*
X99366666Y-107840045D02*
X99328571Y-107801950D01*
X99328571Y-107801950D02*
X99252380Y-107763855D01*
X98642856Y-108487664D02*
X98604761Y-108525760D01*
X98604761Y-108525760D02*
X98642856Y-108563855D01*
X98642856Y-108563855D02*
X98680952Y-108525760D01*
X98680952Y-108525760D02*
X98642856Y-108487664D01*
X98642856Y-108487664D02*
X98642856Y-108563855D01*
X98300000Y-107840045D02*
X98261904Y-107801950D01*
X98261904Y-107801950D02*
X98185714Y-107763855D01*
X98185714Y-107763855D02*
X97995238Y-107763855D01*
X97995238Y-107763855D02*
X97919047Y-107801950D01*
X97919047Y-107801950D02*
X97880952Y-107840045D01*
X97880952Y-107840045D02*
X97842857Y-107916236D01*
X97842857Y-107916236D02*
X97842857Y-107992426D01*
X97842857Y-107992426D02*
X97880952Y-108106712D01*
X97880952Y-108106712D02*
X98338095Y-108563855D01*
X98338095Y-108563855D02*
X97842857Y-108563855D01*
X97576190Y-107763855D02*
X97080952Y-107763855D01*
X97080952Y-107763855D02*
X97347618Y-108068617D01*
X97347618Y-108068617D02*
X97233333Y-108068617D01*
X97233333Y-108068617D02*
X97157142Y-108106712D01*
X97157142Y-108106712D02*
X97119047Y-108144807D01*
X97119047Y-108144807D02*
X97080952Y-108220998D01*
X97080952Y-108220998D02*
X97080952Y-108411474D01*
X97080952Y-108411474D02*
X97119047Y-108487664D01*
X97119047Y-108487664D02*
X97157142Y-108525760D01*
X97157142Y-108525760D02*
X97233333Y-108563855D01*
X97233333Y-108563855D02*
X97461904Y-108563855D01*
X97461904Y-108563855D02*
X97538095Y-108525760D01*
X97538095Y-108525760D02*
X97576190Y-108487664D01*
X103359523Y-91813855D02*
X103359523Y-91013855D01*
X103359523Y-91013855D02*
X103169047Y-91013855D01*
X103169047Y-91013855D02*
X103054761Y-91051950D01*
X103054761Y-91051950D02*
X102978571Y-91128140D01*
X102978571Y-91128140D02*
X102940476Y-91204331D01*
X102940476Y-91204331D02*
X102902380Y-91356712D01*
X102902380Y-91356712D02*
X102902380Y-91470998D01*
X102902380Y-91470998D02*
X102940476Y-91623379D01*
X102940476Y-91623379D02*
X102978571Y-91699569D01*
X102978571Y-91699569D02*
X103054761Y-91775760D01*
X103054761Y-91775760D02*
X103169047Y-91813855D01*
X103169047Y-91813855D02*
X103359523Y-91813855D01*
X105002380Y-91813855D02*
X105269047Y-91432902D01*
X105459523Y-91813855D02*
X105459523Y-91013855D01*
X105459523Y-91013855D02*
X105154761Y-91013855D01*
X105154761Y-91013855D02*
X105078571Y-91051950D01*
X105078571Y-91051950D02*
X105040476Y-91090045D01*
X105040476Y-91090045D02*
X105002380Y-91166236D01*
X105002380Y-91166236D02*
X105002380Y-91280521D01*
X105002380Y-91280521D02*
X105040476Y-91356712D01*
X105040476Y-91356712D02*
X105078571Y-91394807D01*
X105078571Y-91394807D02*
X105154761Y-91432902D01*
X105154761Y-91432902D02*
X105459523Y-91432902D01*
%TO.C,D1*%
X99260000Y-95250000D02*
X93450000Y-95250000D01*
X99260000Y-95250000D02*
X99260000Y-99550000D01*
X99260000Y-99550000D02*
X93450000Y-99550000D01*
%TD*%
%LPC*%
D11*
%TO.C,H1*%
X106000000Y-93600000D03*
%TD*%
%TO.C,H2*%
X94000000Y-106400000D03*
%TD*%
D12*
%TO.C,D1*%
X97750000Y-97400000D03*
X93450000Y-97400000D03*
%TD*%
D13*
%TO.C,J1*%
X91400000Y-101200000D03*
X91400000Y-103600000D03*
%TD*%
D14*
%TO.C,J2*%
X105250000Y-90000000D03*
X103150000Y-90000000D03*
X101050000Y-90000000D03*
X98950000Y-90000000D03*
X96850000Y-90000000D03*
X94750000Y-90000000D03*
%TD*%
D15*
%TO.C,F1*%
X93662500Y-93100000D03*
X97937500Y-93100000D03*
%TD*%
%LPD*%
M02*
