%TF.GenerationSoftware,KiCad,Pcbnew,10.0.6*%
%TF.CreationDate,2026-10-10T11:00:00+02:00*%
%TF.ProjectId,joystick,6a6f7973-7469-4636-9b2e-6b696361645f,rev?*%
%TF.SameCoordinates,Original*%
%TF.FileFunction,Copper,L2,Bot*%
%TF.FilePolarity,Positive*%
%FSLAX46Y46*%
G04 Gerber Fmt 4.6, Leading zero omitted, Abs format (unit mm)*
G04 Created by KiCad (PCBNEW 10.0.6) date 2026-10-10 11:00:00*
%MOMM*%
%LPD*%
G01*
G04 APERTURE LIST*
G04 Aperture macros list*
%AMRoundRect*
0 Rectangle with rounded corners*
0 $1 Rounding radius*
0 $2 $3 $4 $5 $6 $7 $8 $9 X,Y pos of 4 corners*
0 Add a 4 corners polygon primitive as box body*
4,1,4,$2,$3,$4,$5,$6,$7,$8,$9,$2,$3,0*
0 Add four circle primitives for the rounded corners*
1,1,$1+$1,$2,$3*
1,1,$1+$1,$4,$5*
1,1,$1+$1,$6,$7*
1,1,$1+$1,$8,$9*
0 Add four rect primitives between the rounded corners*
20,1,$1+$1,$2,$3,$4,$5,0*
20,1,$1+$1,$4,$5,$6,$7,0*
20,1,$1+$1,$6,$7,$8,$9,0*
20,1,$1+$1,$8,$9,$2,$3,0*%
G04 Aperture macros list end*
%TA.AperFunction,SMDPad,CuDef*%
%ADD10RoundRect,0.250000X1.000000X0.900000X-1.000000X0.900000X-1.000000X-0.900000X1.000000X-0.900000X0*%
%TD*%
%TA.AperFunction,SMDPad,CuDef*%
%ADD11RoundRect,0.270000X0.630000X0.630000X-0.630000X0.630000X-0.630000X-0.630000X0.630000X-0.630000X0*%
%TD*%
%TA.AperFunction,SMDPad,CuDef*%
%ADD12RoundRect,0.195000X0.455000X0.455000X-0.455000X0.455000X-0.455000X-0.455000X0.455000X-0.455000X0*%
%TD*%
%TA.AperFunction,SMDPad,CuDef*%
%ADD13RoundRect,0.250000X-0.312500X-1.450000X0.312500X-1.450000X0.312500X1.450000X-0.312500X1.450000X0*%
%TD*%
%TA.AperFunction,ViaPad*%
%ADD14C,0.600000*%
%TD*%
%TA.AperFunction,Conductor*%
%ADD15C,0.800000*%
%TD*%
%TA.AperFunction,Conductor*%
%ADD16C,0.250000*%
%TD*%
G04 APERTURE END LIST*
D10*
%TO.P,D1,1*%
%TO.N,+5V*%
X97750000Y-97400000D03*
%TO.P,D1,2*%
%TO.N,GND*%
X93450000Y-97400000D03*
%TD*%
D11*
%TO.P,J1,1*%
%TO.N,/VIN*%
X91400000Y-101200000D03*
%TO.P,J1,2*%
%TO.N,GND*%
X91400000Y-103600000D03*
%TD*%
D12*
%TO.P,J2,1*%
%TO.N,/RIGHT*%
X105250000Y-90000000D03*
%TO.P,J2,2*%
%TO.N,/DOWN*%
X103150000Y-90000000D03*
%TO.P,J2,3*%
%TO.N,/UP*%
X101050000Y-90000000D03*
%TO.P,J2,4*%
%TO.N,+5V*%
X98950000Y-90000000D03*
%TO.P,J2,5*%
%TO.N,GND*%
X96850000Y-90000000D03*
%TO.P,J2,6*%
%TO.N,/LEFT*%
X94750000Y-90000000D03*
%TD*%
D13*
%TO.P,F1,1*%
%TO.N,/VIN*%
X93662500Y-93100000D03*
%TO.P,F1,2*%
%TO.N,+5V*%
X97937500Y-93100000D03*
%TD*%
D14*
%TO.N,GND*%
X100000000Y-100000000D03*
X96100000Y-91400000D03*
X92500000Y-92500000D03*
X109000000Y-94500000D03*
X107500000Y-107000000D03*
X95500000Y-108500000D03*
%TO.N,/UP*%
X102000000Y-98000000D03*
%TO.N,/DOWN*%
X102000000Y-102000000D03*
%TO.N,/LEFT*%
X94750000Y-90000000D03*
%TO.N,/RIGHT*%
X104750000Y-95250000D03*
%TD*%
%TO.N,+5V*%
D15*
X98950000Y-90088000D02*
X98950000Y-90000000D01*
X97938000Y-93100000D02*
X97938000Y-91100000D01*
X97938000Y-93100000D02*
X97750000Y-97400000D01*
X97938000Y-91100000D02*
X98950000Y-90088000D01*
%TO.N,/VIN*%
X93662000Y-93138000D02*
X93662000Y-93100000D01*
X91400000Y-95400000D02*
X93662000Y-93138000D01*
X91400000Y-101200000D02*
X91400000Y-95400000D01*
%TO.N,/UP*%
D16*
X102000000Y-98000000D02*
X101050000Y-97050000D01*
X101050000Y-97050000D02*
X101050000Y-90000000D01*
%TO.N,/DOWN*%
X102000000Y-102000000D02*
X103150000Y-100850000D01*
X103150000Y-100850000D02*
X103150000Y-90000000D01*
%TO.N,/RIGHT*%
X104300000Y-94800000D02*
X104300000Y-91850000D01*
X104300000Y-91850000D02*
X105250000Y-90900000D01*
X104750000Y-95250000D02*
X104300000Y-94800000D01*
X105250000Y-90900000D02*
X105250000Y-90000000D01*
%TD*%
%TA.AperFunction,Conductor*%
%TO.N,GND*%
G36*
X95928736Y-89120185D02*
G01*
X95974491Y-89172989D01*
X95984435Y-89242147D01*
X95960963Y-89298813D01*
X95956080Y-89305334D01*
X95906341Y-89438689D01*
X95906340Y-89438692D01*
X95900000Y-89497666D01*
X95900000Y-89800000D01*
X97800000Y-89800000D01*
X97800000Y-89497668D01*
X97799999Y-89497666D01*
X97793659Y-89438692D01*
X97793658Y-89438689D01*
X97743919Y-89305334D01*
X97739037Y-89298813D01*
X97714619Y-89233349D01*
X97729470Y-89165075D01*
X97778874Y-89115669D01*
X97838303Y-89100500D01*
X98023734Y-89100500D01*
X98090773Y-89120185D01*
X98136528Y-89172989D01*
X98146472Y-89242147D01*
X98123504Y-89298131D01*
X98111859Y-89313910D01*
X98096677Y-89334481D01*
X98052323Y-89461236D01*
X98052321Y-89461245D01*
X98049500Y-89491331D01*
X98049500Y-90017192D01*
X98029815Y-90084231D01*
X98013181Y-90104873D01*
X97946708Y-90171346D01*
X97885385Y-90204831D01*
X97817832Y-90200000D01*
X97050000Y-90200000D01*
X97050000Y-90950000D01*
X97163500Y-90950000D01*
X97230539Y-90969685D01*
X97276294Y-91022489D01*
X97287500Y-91074000D01*
X97287500Y-91224404D01*
X97267815Y-91291443D01*
X97262767Y-91298715D01*
X97181204Y-91407669D01*
X97181202Y-91407671D01*
X97130908Y-91542517D01*
X97124501Y-91602116D01*
X97124501Y-91602123D01*
X97124500Y-91602135D01*
X97124500Y-94597870D01*
X97124501Y-94597876D01*
X97130908Y-94657483D01*
X97181202Y-94792328D01*
X97181205Y-94792333D01*
X97184590Y-94796855D01*
X97209005Y-94862319D01*
X97209203Y-94876579D01*
X97165293Y-95880916D01*
X97142699Y-95947032D01*
X97087947Y-95990437D01*
X97041411Y-95999500D01*
X96702130Y-95999500D01*
X96702123Y-95999501D01*
X96642516Y-96005908D01*
X96507671Y-96056202D01*
X96507664Y-96056206D01*
X96392455Y-96142452D01*
X96392452Y-96142455D01*
X96306206Y-96257664D01*
X96306202Y-96257671D01*
X96255908Y-96392517D01*
X96249501Y-96452116D01*
X96249501Y-96452123D01*
X96249500Y-96452135D01*
X96249500Y-98347870D01*
X96249501Y-98347876D01*
X96255908Y-98407483D01*
X96306202Y-98542328D01*
X96306206Y-98542335D01*
X96392452Y-98657544D01*
X96392455Y-98657547D01*
X96507664Y-98743793D01*
X96507671Y-98743797D01*
X96642517Y-98794091D01*
X96642516Y-98794091D01*
X96649444Y-98794835D01*
X96702127Y-98800500D01*
X98797872Y-98800499D01*
X98857483Y-98794091D01*
X98992331Y-98743796D01*
X99107546Y-98657546D01*
X99193796Y-98542331D01*
X99244091Y-98407483D01*
X99250500Y-98347873D01*
X99250499Y-96452128D01*
X99244091Y-96392517D01*
X99193796Y-96257669D01*
X99193795Y-96257668D01*
X99193793Y-96257664D01*
X99107547Y-96142455D01*
X99107544Y-96142452D01*
X98992335Y-96056206D01*
X98992328Y-96056202D01*
X98857482Y-96005908D01*
X98857483Y-96005908D01*
X98797883Y-95999501D01*
X98797881Y-95999500D01*
X98797873Y-95999500D01*
X98797865Y-95999500D01*
X98591892Y-95999500D01*
X98524853Y-95979815D01*
X98479098Y-95927011D01*
X98468010Y-95870084D01*
X98504231Y-95041627D01*
X98526825Y-94975512D01*
X98553802Y-94947777D01*
X98607546Y-94907546D01*
X98693796Y-94792331D01*
X98744091Y-94657483D01*
X98750500Y-94597873D01*
X98750499Y-91602128D01*
X98744091Y-91542517D01*
X98693796Y-91407669D01*
X98693795Y-91407668D01*
X98689546Y-91399886D01*
X98691896Y-91398602D01*
X98672328Y-91346166D01*
X98687166Y-91277890D01*
X98708326Y-91249618D01*
X99021126Y-90936819D01*
X99082449Y-90903334D01*
X99108807Y-90900500D01*
X99458668Y-90900500D01*
X99472039Y-90899245D01*
X99488759Y-90897678D01*
X99615519Y-90853322D01*
X99723574Y-90773574D01*
X99803322Y-90665519D01*
X99847678Y-90538759D01*
X99850500Y-90508664D01*
X99850500Y-89491336D01*
X99847678Y-89461241D01*
X99803322Y-89334481D01*
X99776495Y-89298131D01*
X99752525Y-89232506D01*
X99767840Y-89164335D01*
X99817580Y-89115267D01*
X99876266Y-89100500D01*
X100123734Y-89100500D01*
X100190773Y-89120185D01*
X100236528Y-89172989D01*
X100246472Y-89242147D01*
X100223504Y-89298131D01*
X100211859Y-89313910D01*
X100196677Y-89334481D01*
X100152323Y-89461236D01*
X100152321Y-89461245D01*
X100149500Y-89491331D01*
X100149500Y-90508668D01*
X100152321Y-90538754D01*
X100152321Y-90538758D01*
X100152322Y-90538759D01*
X100196678Y-90665519D01*
X100276426Y-90773574D01*
X100384481Y-90853322D01*
X100511241Y-90897678D01*
X100526288Y-90899089D01*
X100541332Y-90900500D01*
X100541336Y-90900500D01*
X100550500Y-90900500D01*
X100617539Y-90920185D01*
X100663294Y-90972989D01*
X100674500Y-91024500D01*
X100674500Y-97099435D01*
X100700090Y-97194938D01*
X100700091Y-97194939D01*
X100700091Y-97194940D01*
X100749526Y-97280563D01*
X101413181Y-97944218D01*
X101446666Y-98005541D01*
X101449500Y-98031899D01*
X101449500Y-98072475D01*
X101477874Y-98178367D01*
X101487017Y-98212488D01*
X101559488Y-98338011D01*
X101559490Y-98338013D01*
X101559491Y-98338015D01*
X101661985Y-98440509D01*
X101661986Y-98440510D01*
X101661988Y-98440511D01*
X101787511Y-98512982D01*
X101787512Y-98512982D01*
X101787515Y-98512984D01*
X101927525Y-98550500D01*
X101927528Y-98550500D01*
X102072472Y-98550500D01*
X102072475Y-98550500D01*
X102212485Y-98512984D01*
X102338015Y-98440509D01*
X102440509Y-98338015D01*
X102512984Y-98212485D01*
X102530726Y-98146271D01*
X102567090Y-98086613D01*
X102629937Y-98056084D01*
X102699313Y-98064379D01*
X102753191Y-98108864D01*
X102774465Y-98175416D01*
X102774500Y-98178367D01*
X102774500Y-100643101D01*
X102754815Y-100710140D01*
X102738181Y-100730782D01*
X102055782Y-101413181D01*
X101994459Y-101446666D01*
X101968101Y-101449500D01*
X101927525Y-101449500D01*
X101798993Y-101483940D01*
X101787511Y-101487017D01*
X101661988Y-101559488D01*
X101661982Y-101559493D01*
X101559493Y-101661982D01*
X101559488Y-101661988D01*
X101487017Y-101787511D01*
X101487016Y-101787515D01*
X101449500Y-101927525D01*
X101449500Y-102072475D01*
X101484075Y-102201509D01*
X101487017Y-102212488D01*
X101559488Y-102338011D01*
X101559490Y-102338013D01*
X101559491Y-102338015D01*
X101661985Y-102440509D01*
X101661986Y-102440510D01*
X101661988Y-102440511D01*
X101787511Y-102512982D01*
X101787512Y-102512982D01*
X101787515Y-102512984D01*
X101927525Y-102550500D01*
X101927528Y-102550500D01*
X102072472Y-102550500D01*
X102072475Y-102550500D01*
X102212485Y-102512984D01*
X102338015Y-102440509D01*
X102440509Y-102338015D01*
X102512984Y-102212485D01*
X102550500Y-102072475D01*
X102550500Y-102031899D01*
X102570185Y-101964860D01*
X102586819Y-101944218D01*
X102971549Y-101559488D01*
X103450475Y-101080562D01*
X103499911Y-100994937D01*
X103525500Y-100899436D01*
X103525500Y-100800564D01*
X103525500Y-91024500D01*
X103545185Y-90957461D01*
X103597989Y-90911706D01*
X103649500Y-90900500D01*
X103658668Y-90900500D01*
X103672039Y-90899245D01*
X103688759Y-90897678D01*
X103815519Y-90853322D01*
X103923574Y-90773574D01*
X104003322Y-90665519D01*
X104047678Y-90538759D01*
X104050500Y-90508664D01*
X104050500Y-89491336D01*
X104047678Y-89461241D01*
X104003322Y-89334481D01*
X103976495Y-89298131D01*
X103952525Y-89232506D01*
X103967840Y-89164335D01*
X104017580Y-89115267D01*
X104076266Y-89100500D01*
X104323734Y-89100500D01*
X104390773Y-89120185D01*
X104436528Y-89172989D01*
X104446472Y-89242147D01*
X104423504Y-89298131D01*
X104411859Y-89313910D01*
X104396677Y-89334481D01*
X104352323Y-89461236D01*
X104352321Y-89461245D01*
X104349500Y-89491331D01*
X104349500Y-90508668D01*
X104352321Y-90538754D01*
X104352321Y-90538758D01*
X104352322Y-90538759D01*
X104396678Y-90665519D01*
X104476426Y-90773574D01*
X104557850Y-90833668D01*
X104572778Y-90844685D01*
X104615029Y-90900333D01*
X104620487Y-90969989D01*
X104587419Y-91031538D01*
X104586825Y-91032136D01*
X104069438Y-91549525D01*
X103999526Y-91619436D01*
X103950091Y-91705059D01*
X103950091Y-91705060D01*
X103950090Y-91705062D01*
X103924500Y-91800565D01*
X103924500Y-91800567D01*
X103924500Y-94849437D01*
X103936634Y-94894723D01*
X103950089Y-94944936D01*
X103950089Y-94944937D01*
X103953301Y-94950500D01*
X103984240Y-95004087D01*
X103999526Y-95030563D01*
X103999528Y-95030565D01*
X104163181Y-95194218D01*
X104196666Y-95255541D01*
X104199500Y-95281899D01*
X104199500Y-95322475D01*
X104203106Y-95335931D01*
X104237017Y-95462488D01*
X104309488Y-95588011D01*
X104309490Y-95588013D01*
X104309491Y-95588015D01*
X104411985Y-95690509D01*
X104411986Y-95690510D01*
X104411988Y-95690511D01*
X104537511Y-95762982D01*
X104537512Y-95762982D01*
X104537515Y-95762984D01*
X104677525Y-95800500D01*
X104677528Y-95800500D01*
X104822472Y-95800500D01*
X104822475Y-95800500D01*
X104962485Y-95762984D01*
X105088015Y-95690509D01*
X105190509Y-95588015D01*
X105262984Y-95462485D01*
X105300500Y-95322475D01*
X105300500Y-95177525D01*
X105262984Y-95037515D01*
X105262982Y-95037511D01*
X105229073Y-94978779D01*
X105212600Y-94910879D01*
X105235452Y-94844852D01*
X105290373Y-94801662D01*
X105359927Y-94795020D01*
X105392752Y-94806293D01*
X105481588Y-94851557D01*
X105683757Y-94917246D01*
X105893713Y-94950500D01*
X105893714Y-94950500D01*
X106106286Y-94950500D01*
X106106287Y-94950500D01*
X106316243Y-94917246D01*
X106518412Y-94851557D01*
X106707816Y-94755051D01*
X106842108Y-94657483D01*
X106879786Y-94630109D01*
X106879788Y-94630106D01*
X106879792Y-94630104D01*
X107030104Y-94479792D01*
X107030106Y-94479788D01*
X107030109Y-94479786D01*
X107155048Y-94307820D01*
X107155047Y-94307820D01*
X107155051Y-94307816D01*
X107251557Y-94118412D01*
X107317246Y-93916243D01*
X107350500Y-93706287D01*
X107350500Y-93493713D01*
X107317246Y-93283757D01*
X107251557Y-93081588D01*
X107155051Y-92892184D01*
X107155049Y-92892181D01*
X107155048Y-92892179D01*
X107030109Y-92720213D01*
X106879786Y-92569890D01*
X106707820Y-92444951D01*
X106518414Y-92348444D01*
X106518413Y-92348443D01*
X106518412Y-92348443D01*
X106316243Y-92282754D01*
X106316241Y-92282753D01*
X106316240Y-92282753D01*
X106154957Y-92257208D01*
X106106287Y-92249500D01*
X105893713Y-92249500D01*
X105845042Y-92257208D01*
X105683760Y-92282753D01*
X105481585Y-92348444D01*
X105292179Y-92444951D01*
X105120213Y-92569890D01*
X104969894Y-92720209D01*
X104969890Y-92720214D01*
X104899818Y-92816661D01*
X104844488Y-92859327D01*
X104774875Y-92865306D01*
X104713080Y-92832700D01*
X104678723Y-92771862D01*
X104675500Y-92743776D01*
X104675500Y-92056899D01*
X104695185Y-91989860D01*
X104711819Y-91969218D01*
X105123186Y-91557852D01*
X105550475Y-91130563D01*
X105575192Y-91087750D01*
X105599910Y-91044938D01*
X105613986Y-90992405D01*
X105650350Y-90932746D01*
X105713196Y-90902217D01*
X105733760Y-90900500D01*
X105758668Y-90900500D01*
X105772039Y-90899245D01*
X105788759Y-90897678D01*
X105915519Y-90853322D01*
X106023574Y-90773574D01*
X106103322Y-90665519D01*
X106147678Y-90538759D01*
X106150500Y-90508664D01*
X106150500Y-90343482D01*
X106170185Y-90276443D01*
X106222989Y-90230688D01*
X106292147Y-90220744D01*
X106355703Y-90249769D01*
X106391439Y-90302234D01*
X106414461Y-90367503D01*
X106414462Y-90367506D01*
X106567541Y-90693470D01*
X106567548Y-90693482D01*
X106752371Y-91002523D01*
X106752381Y-91002539D01*
X106752387Y-91002547D01*
X106752393Y-91002556D01*
X106967123Y-91291610D01*
X106967132Y-91291620D01*
X106967136Y-91291625D01*
X107209661Y-91557842D01*
X107209670Y-91557850D01*
X107209672Y-91557852D01*
X107477528Y-91798526D01*
X107477532Y-91798529D01*
X107477538Y-91798534D01*
X107683854Y-91949613D01*
X107760668Y-92005862D01*
X107768092Y-92011298D01*
X108078424Y-92194012D01*
X108405437Y-92344851D01*
X108745868Y-92462311D01*
X108745872Y-92462312D01*
X108745875Y-92462313D01*
X108935929Y-92507275D01*
X109096316Y-92545219D01*
X109096319Y-92545219D01*
X109096320Y-92545220D01*
X109453295Y-92592749D01*
X109813231Y-92604425D01*
X109824026Y-92603695D01*
X109867134Y-92600781D01*
X109935349Y-92615897D01*
X109984562Y-92665494D01*
X109999500Y-92724498D01*
X109999500Y-107075188D01*
X109979815Y-107142227D01*
X109927011Y-107187982D01*
X109866883Y-107198888D01*
X109824359Y-107195925D01*
X109824334Y-107195925D01*
X109471782Y-107205909D01*
X109471774Y-107205910D01*
X109121879Y-107250302D01*
X108949931Y-107289490D01*
X108777986Y-107328678D01*
X108777983Y-107328678D01*
X108777983Y-107328679D01*
X108777964Y-107328684D01*
X108443408Y-107440281D01*
X108121324Y-107584054D01*
X107814856Y-107758602D01*
X107814849Y-107758606D01*
X107814841Y-107758611D01*
X107814834Y-107758616D01*
X107526877Y-107962286D01*
X107260217Y-108193111D01*
X107260206Y-108193121D01*
X107017362Y-108448919D01*
X106800689Y-108727211D01*
X106612239Y-109025361D01*
X106612231Y-109025376D01*
X106453834Y-109340487D01*
X106453832Y-109340491D01*
X106326977Y-109669603D01*
X106326975Y-109669609D01*
X106232891Y-110009534D01*
X106232889Y-110009542D01*
X106172479Y-110357019D01*
X106172477Y-110357034D01*
X106146313Y-110708763D01*
X106146312Y-110708773D01*
X106147821Y-110772570D01*
X106129727Y-110840056D01*
X106078019Y-110887046D01*
X106023856Y-110899500D01*
X93976144Y-110899500D01*
X93909105Y-110879815D01*
X93863350Y-110827011D01*
X93852179Y-110772570D01*
X93853687Y-110708774D01*
X93853686Y-110708772D01*
X93853687Y-110708765D01*
X93827521Y-110357029D01*
X93767108Y-110009533D01*
X93673024Y-109669605D01*
X93546171Y-109340499D01*
X93387763Y-109025364D01*
X93199316Y-108727219D01*
X92982635Y-108448917D01*
X92739794Y-108193122D01*
X92739793Y-108193121D01*
X92739782Y-108193111D01*
X92473121Y-107962286D01*
X92473108Y-107962276D01*
X92185167Y-107758615D01*
X91878675Y-107584054D01*
X91556600Y-107440285D01*
X91556598Y-107440284D01*
X91222013Y-107328678D01*
X90878124Y-107250303D01*
X90878122Y-107250302D01*
X90878120Y-107250302D01*
X90528225Y-107205910D01*
X90528217Y-107205909D01*
X90175665Y-107195925D01*
X90175640Y-107195925D01*
X90133117Y-107198888D01*
X90064872Y-107183910D01*
X90015558Y-107134413D01*
X90000500Y-107075188D01*
X90000500Y-106293713D01*
X92649500Y-106293713D01*
X92649500Y-106506286D01*
X92682753Y-106716239D01*
X92748444Y-106918414D01*
X92844951Y-107107820D01*
X92969890Y-107279786D01*
X93120213Y-107430109D01*
X93292179Y-107555048D01*
X93292181Y-107555049D01*
X93292184Y-107555051D01*
X93481588Y-107651557D01*
X93683757Y-107717246D01*
X93893713Y-107750500D01*
X93893714Y-107750500D01*
X94106286Y-107750500D01*
X94106287Y-107750500D01*
X94316243Y-107717246D01*
X94518412Y-107651557D01*
X94707816Y-107555051D01*
X94750458Y-107524070D01*
X94879786Y-107430109D01*
X94879788Y-107430106D01*
X94879792Y-107430104D01*
X95030104Y-107279792D01*
X95030106Y-107279788D01*
X95030109Y-107279786D01*
X95155048Y-107107820D01*
X95155047Y-107107820D01*
X95155051Y-107107816D01*
X95251557Y-106918412D01*
X95317246Y-106716243D01*
X95350500Y-106506287D01*
X95350500Y-106293713D01*
X95317246Y-106083757D01*
X95251557Y-105881588D01*
X95155051Y-105692184D01*
X95155049Y-105692181D01*
X95155048Y-105692179D01*
X95030109Y-105520213D01*
X94879786Y-105369890D01*
X94707820Y-105244951D01*
X94518414Y-105148444D01*
X94518413Y-105148443D01*
X94518412Y-105148443D01*
X94316243Y-105082754D01*
X94316241Y-105082753D01*
X94316240Y-105082753D01*
X94154957Y-105057208D01*
X94106287Y-105049500D01*
X93893713Y-105049500D01*
X93845042Y-105057208D01*
X93683760Y-105082753D01*
X93481585Y-105148444D01*
X93292179Y-105244951D01*
X93120213Y-105369890D01*
X92969890Y-105520213D01*
X92844951Y-105692179D01*
X92748444Y-105881585D01*
X92682753Y-106083760D01*
X92649500Y-106293713D01*
X90000500Y-106293713D01*
X90000500Y-104485135D01*
X90020185Y-104418096D01*
X90072989Y-104372341D01*
X90142147Y-104362397D01*
X90205703Y-104391422D01*
X90239061Y-104437683D01*
X90272103Y-104517455D01*
X90272103Y-104517456D01*
X90363471Y-104636528D01*
X90482544Y-104727896D01*
X90621196Y-104785327D01*
X90621200Y-104785328D01*
X90732636Y-104799999D01*
X91199999Y-104799999D01*
X91600000Y-104799999D01*
X92067364Y-104799999D01*
X92178792Y-104785330D01*
X92178803Y-104785327D01*
X92317455Y-104727896D01*
X92317456Y-104727896D01*
X92436528Y-104636528D01*
X92527896Y-104517456D01*
X92527896Y-104517455D01*
X92585327Y-104378803D01*
X92585328Y-104378799D01*
X92599999Y-104267370D01*
X92600000Y-104267356D01*
X92600000Y-103800000D01*
X91600000Y-103800000D01*
X91600000Y-104799999D01*
X91199999Y-104799999D01*
X91200000Y-104799998D01*
X91200000Y-103724000D01*
X91219685Y-103656961D01*
X91272489Y-103611206D01*
X91324000Y-103600000D01*
X91400000Y-103600000D01*
X91400000Y-103524000D01*
X91419685Y-103456961D01*
X91472489Y-103411206D01*
X91524000Y-103400000D01*
X92599999Y-103400000D01*
X92599999Y-102932635D01*
X92585330Y-102821207D01*
X92585327Y-102821196D01*
X92527896Y-102682544D01*
X92527896Y-102682543D01*
X92436528Y-102563471D01*
X92311012Y-102467159D01*
X92313138Y-102464388D01*
X92276002Y-102425333D01*
X92262875Y-102356707D01*
X92288933Y-102291879D01*
X92311366Y-102269867D01*
X92401510Y-102201510D01*
X92487965Y-102087501D01*
X92540456Y-101954395D01*
X92550500Y-101870754D01*
X92550500Y-100529246D01*
X92540456Y-100445605D01*
X92487965Y-100312499D01*
X92401510Y-100198490D01*
X92287501Y-100112035D01*
X92287500Y-100112034D01*
X92287498Y-100112033D01*
X92154394Y-100059543D01*
X92146683Y-100057594D01*
X92147367Y-100054886D01*
X92095501Y-100032645D01*
X92056368Y-99974762D01*
X92050500Y-99937067D01*
X92050500Y-98915871D01*
X92070185Y-98848832D01*
X92122989Y-98803077D01*
X92192147Y-98793133D01*
X92219990Y-98800517D01*
X92318553Y-98839385D01*
X92406946Y-98850000D01*
X93250000Y-98850000D01*
X93650000Y-98850000D01*
X94493054Y-98850000D01*
X94581443Y-98839386D01*
X94722095Y-98783920D01*
X94842564Y-98692564D01*
X94933920Y-98572095D01*
X94989386Y-98431443D01*
X95000000Y-98343053D01*
X95000000Y-97600000D01*
X93650000Y-97600000D01*
X93650000Y-98850000D01*
X93250000Y-98850000D01*
X93250000Y-97200000D01*
X93650000Y-97200000D01*
X95000000Y-97200000D01*
X95000000Y-96456946D01*
X94989386Y-96368556D01*
X94933920Y-96227904D01*
X94842564Y-96107435D01*
X94722095Y-96016079D01*
X94581443Y-95960613D01*
X94493054Y-95950000D01*
X93650000Y-95950000D01*
X93650000Y-97200000D01*
X93250000Y-97200000D01*
X93250000Y-95950000D01*
X92406946Y-95950000D01*
X92318555Y-95960614D01*
X92219989Y-95999483D01*
X92150403Y-96005764D01*
X92088467Y-95973427D01*
X92053846Y-95912738D01*
X92050500Y-95884128D01*
X92050500Y-95720807D01*
X92070185Y-95653768D01*
X92086815Y-95633130D01*
X92814747Y-94905197D01*
X92876068Y-94871714D01*
X92945759Y-94876698D01*
X92990107Y-94905199D01*
X92992455Y-94907547D01*
X93107664Y-94993793D01*
X93107671Y-94993797D01*
X93152618Y-95010561D01*
X93242517Y-95044091D01*
X93302127Y-95050500D01*
X94022872Y-95050499D01*
X94082483Y-95044091D01*
X94217331Y-94993796D01*
X94332546Y-94907546D01*
X94418796Y-94792331D01*
X94469091Y-94657483D01*
X94475500Y-94597873D01*
X94475499Y-91602128D01*
X94469091Y-91542517D01*
X94418796Y-91407669D01*
X94418795Y-91407668D01*
X94418793Y-91407664D01*
X94332547Y-91292455D01*
X94332544Y-91292452D01*
X94217335Y-91206206D01*
X94217328Y-91206202D01*
X94082486Y-91155910D01*
X94082485Y-91155909D01*
X94082483Y-91155909D01*
X94022873Y-91149500D01*
X94022864Y-91149500D01*
X93378369Y-91149500D01*
X93311330Y-91129815D01*
X93265575Y-91077011D01*
X93255631Y-91007853D01*
X93271947Y-90961857D01*
X93432459Y-90693469D01*
X93585540Y-90367499D01*
X93608561Y-90302233D01*
X93649425Y-90245560D01*
X93714442Y-90219976D01*
X93782970Y-90233604D01*
X93833251Y-90282117D01*
X93849500Y-90343482D01*
X93849500Y-90508668D01*
X93852321Y-90538754D01*
X93852321Y-90538758D01*
X93852322Y-90538759D01*
X93896678Y-90665519D01*
X93976426Y-90773574D01*
X94084481Y-90853322D01*
X94211241Y-90897678D01*
X94226288Y-90899089D01*
X94241332Y-90900500D01*
X94241336Y-90900500D01*
X95258668Y-90900500D01*
X95272039Y-90899245D01*
X95288759Y-90897678D01*
X95415519Y-90853322D01*
X95523574Y-90773574D01*
X95603322Y-90665519D01*
X95647678Y-90538759D01*
X95650500Y-90508664D01*
X95650500Y-90502333D01*
X95900000Y-90502333D01*
X95906340Y-90561307D01*
X95906341Y-90561310D01*
X95956081Y-90694667D01*
X96041383Y-90808616D01*
X96155333Y-90893918D01*
X96155331Y-90893918D01*
X96288689Y-90943658D01*
X96288692Y-90943659D01*
X96347666Y-90949999D01*
X96347668Y-90950000D01*
X96650000Y-90950000D01*
X96650000Y-90200000D01*
X95900000Y-90200000D01*
X95900000Y-90502333D01*
X95650500Y-90502333D01*
X95650500Y-89491336D01*
X95647678Y-89461241D01*
X95603322Y-89334481D01*
X95576495Y-89298131D01*
X95552525Y-89232506D01*
X95567840Y-89164335D01*
X95617580Y-89115267D01*
X95676266Y-89100500D01*
X95861697Y-89100500D01*
X95928736Y-89120185D01*
G37*
%TD.AperFunction*%
%TA.AperFunction,Conductor*%
G36*
X92774973Y-91669100D02*
G01*
X92828592Y-91713897D01*
X92849480Y-91780571D01*
X92849500Y-91782803D01*
X92849500Y-92979191D01*
X92829815Y-93046230D01*
X92813181Y-93066872D01*
X90894727Y-94985325D01*
X90894726Y-94985326D01*
X90823534Y-95091874D01*
X90774499Y-95210255D01*
X90774497Y-95210261D01*
X90749500Y-95335928D01*
X90749500Y-99937067D01*
X90729815Y-100004106D01*
X90677011Y-100049861D01*
X90653063Y-100056590D01*
X90653317Y-100057594D01*
X90645605Y-100059543D01*
X90512501Y-100112033D01*
X90512499Y-100112034D01*
X90398490Y-100198490D01*
X90312034Y-100312499D01*
X90312033Y-100312501D01*
X90259544Y-100445603D01*
X90259544Y-100445605D01*
X90249500Y-100529246D01*
X90249500Y-101870754D01*
X90256317Y-101927525D01*
X90259544Y-101954396D01*
X90312033Y-102087498D01*
X90312034Y-102087500D01*
X90312035Y-102087501D01*
X90398490Y-102201510D01*
X90488627Y-102269863D01*
X90530150Y-102326054D01*
X90534702Y-102395775D01*
X90500838Y-102456889D01*
X90488407Y-102466401D01*
X90488988Y-102467159D01*
X90363471Y-102563471D01*
X90272104Y-102682543D01*
X90239061Y-102762317D01*
X90195220Y-102816720D01*
X90128926Y-102838785D01*
X90061227Y-102821506D01*
X90013616Y-102770369D01*
X90000500Y-102714864D01*
X90000500Y-92724498D01*
X90020185Y-92657459D01*
X90072989Y-92611704D01*
X90132866Y-92600781D01*
X90181396Y-92604061D01*
X90186769Y-92604425D01*
X90546705Y-92592749D01*
X90903680Y-92545220D01*
X91254132Y-92462311D01*
X91594563Y-92344851D01*
X91921576Y-92194012D01*
X92231908Y-92011298D01*
X92522462Y-91798534D01*
X92642624Y-91690567D01*
X92705647Y-91660403D01*
X92774973Y-91669100D01*
G37*
%TD.AperFunction*%
%TD*%
M02*
